<svg width="40" height="40" viewBox="0 0 40 40" fill="none" xmlns="http://www.w3.org/2000/svg">
<path d="M5.82666 12.8276L7.55225 13.4179C7.92562 12.2171 8.59668 11.3896 9.56543 10.9355C10.5241 10.4814 11.624 10.2544 12.8652 10.2544H15.9985C17.0076 10.2544 17.9259 10.0475 18.7534 9.63377C19.5708 9.23012 20.2217 8.58429 20.7061 7.69627C21.1904 6.81834 21.4326 5.6629 21.4326 4.22996H19.5859C19.5859 5.37026 19.263 6.18764 18.6172 6.68211C17.9714 7.18667 17.0985 7.43895 15.9985 7.43895H12.8652C11.8057 7.43895 10.8167 7.6004 9.89844 7.92332C8.97005 8.25633 8.15771 8.81134 7.46143 9.58836C6.75505 10.3755 6.21012 11.4552 5.82666 12.8276ZM33.7993 13.4179L35.54 12.8276C35.1465 11.4552 34.6016 10.3755 33.9053 9.58836C33.209 8.81134 32.3966 8.25633 31.4683 7.92332C30.55 7.6004 29.561 7.43895 28.5015 7.43895H25.3833C24.6466 7.43895 24.0109 7.32794 23.4761 7.10594C22.9412 6.88393 22.5275 6.53579 22.2349 6.0615C21.9321 5.59731 21.7808 4.9868 21.7808 4.22996H19.9341C19.9341 5.6629 20.1763 6.81834 20.6606 7.69627C21.145 8.58429 21.8009 9.23012 22.6284 9.63377C23.4458 10.0475 24.3641 10.2544 25.3833 10.2544H28.5015C29.3289 10.2544 30.0959 10.3502 30.8022 10.542C31.5086 10.7438 32.1191 11.0718 32.6338 11.5259C33.1585 11.9901 33.547 12.6207 33.7993 13.4179ZM28.5166 18.2593C28.0423 18.2593 27.6437 18.4056 27.3208 18.6982C26.9878 19.001 26.8213 19.4349 26.8213 20C26.8213 20.5651 26.9878 20.994 27.3208 21.2866C27.6437 21.5894 28.0423 21.7407 28.5166 21.7407C28.9808 21.7407 29.3743 21.5894 29.6973 21.2866C30.0202 20.994 30.1816 20.5651 30.1816 20C30.1816 19.4349 30.0202 19.001 29.6973 18.6982C29.3743 18.4056 28.9808 18.2593 28.5166 18.2593ZM15.1509 18.2744C14.6766 18.2744 14.278 18.4207 13.9551 18.7134C13.6221 19.0161 13.4556 19.45 13.4556 20.0151C13.4556 20.5802 13.6221 21.0091 13.9551 21.3018C14.278 21.6045 14.6766 21.7559 15.1509 21.7559C15.6151 21.7559 16.0086 21.6045 16.3315 21.3018C16.6545 21.0091 16.8159 20.5802 16.8159 20.0151C16.8159 19.45 16.6545 19.0161 16.3315 18.7134C16.0086 18.4207 15.6151 18.2744 15.1509 18.2744ZM7.55225 26.5366L5.82666 27.127C6.21012 28.5095 6.75505 29.5892 7.46143 30.3662C8.15771 31.1533 8.97005 31.7084 9.89844 32.0313C10.8167 32.3542 11.8057 32.5156 12.8652 32.5156H15.9985C16.7251 32.5156 17.3608 32.6266 17.9058 32.8487C18.4406 33.0707 18.8543 33.4138 19.147 33.8779C19.4396 34.3522 19.5859 34.9678 19.5859 35.7246H21.2964C21.2964 34.3018 21.0693 33.1463 20.6152 32.2583C20.151 31.3703 19.5203 30.7194 18.7231 30.3057C17.9159 29.902 17.0076 29.7002 15.9985 29.7002H12.8652C12.0378 29.7002 11.2708 29.6043 10.5645 29.4126C9.84798 29.2209 9.23242 28.8929 8.71777 28.4287C8.19303 27.9746 7.80452 27.3439 7.55225 26.5366ZM35.54 27.127L33.7993 26.5366C33.547 27.3338 33.1585 27.9595 32.6338 28.4136C32.1191 28.8778 31.5086 29.2057 30.8022 29.3975C30.0959 29.5993 29.3289 29.7002 28.5015 29.7002H25.3833C24.3641 29.7002 23.4559 29.902 22.6587 30.3057C21.8615 30.7194 21.2358 31.3703 20.7817 32.2583C20.3175 33.1463 20.0854 34.3018 20.0854 35.7246H21.7808C21.7808 34.5944 22.1087 33.777 22.7646 33.2725C23.4105 32.7679 24.2834 32.5156 25.3833 32.5156H28.5015C29.561 32.5156 30.55 32.3542 31.4683 32.0313C32.3966 31.7084 33.209 31.1533 33.9053 30.3662C34.6016 29.5892 35.1465 28.5095 35.54 27.127Z" fill="url(#paint0_linear_3101_16)"/>
<defs>
<linearGradient id="paint0_linear_3101_16" x1="19.7808" y1="3" x2="29.6222" y2="34.0165" gradientUnits="userSpaceOnUse">
<stop stop-color="#ECB729"/>
<stop offset="0.373814" stop-color="#CC3453"/>
<stop offset="1" stop-color="#5B81BD"/>
</linearGradient>
</defs>
</svg>
